<svg xmlns="http://www.w3.org/2000/svg" width="231.22379mm" height="235.73123mm" viewBox="0 0 231.22379 235.73123"><g style="stroke-width:.20677"><g style="stroke-width:.20677"><path d="M0 0a2 2 0 0 0-.218-.011H-9.49v8.389h9.457l1.966 3.04H-9.49v8.018h1.898v.002h9.869l1.968 3.044h-21.369V20.39c.3-.065 1.103-.241 1.686-.375 1.029-.245 1.642-1.106 1.642-2.292V1.702c0-1.193-.613-2.047-1.642-2.29-.583-.14-1.386-.311-1.686-.377V-3.06H4.245L3.263 0Z" style="fill:#292254;fill-opacity:1;fill-rule:nonzero;stroke:none;stroke-width:.20677" transform="matrix(1.70614 0 0 -1.70614 80.3 197.256)"/></g><g style="stroke-width:.20677"><path d="M0 0a2 2 0 0 0-.216-.011h-9.276v8.389h9.458l1.97 3.04H-9.492v8.018h.836v.002H2.278l1.964 3.044h-21.367V20.39c.303-.065 1.102-.241 1.683-.375 1.033-.245 1.646-1.106 1.646-2.292V1.702c0-1.193-.613-2.047-1.646-2.29-.581-.14-1.38-.311-1.683-.377V-3.06H4.242L3.26 0Z" style="fill:#292254;fill-opacity:1;fill-rule:nonzero;stroke:none;stroke-width:.20677" transform="matrix(1.70614 0 0 -1.70614 130.424 197.256)"/></g><g style="stroke-width:.20677"><path d="M0 0h-4.906c-.74 0-1.403-.745-1.403-.745v9.536H0a4.4 4.4 0 0 0 4.396-4.396A4.4 4.4 0 0 0 0 0m1.252 11.84h-15.195V9.747c.3-.064 1.102-.24 1.685-.375 1.031-.245 1.641-1.105 1.641-2.292V-8.94c0-1.194-.61-2.047-1.641-2.29-.583-.14-1.385-.312-1.685-.377v-2.095h7.634v10.651h7.561c4.105 0 7.447 3.343 7.447 7.446 0 4.106-3.342 7.445-7.447 7.445" style="fill:#292254;fill-opacity:1;fill-rule:nonzero;stroke:none;stroke-width:.20677" transform="matrix(1.70614 0 0 -1.70614 174.93 179.098)"/></g><g style="stroke-width:.20677"><path d="M0 0c-1.516 1.449-2.879 1.941-5.356 2.839l-.445.163c-2.008.727-4.279 1.547-5.419 3.04-.651.858-.593 2.266-.163 3.08.92 1.752 2.843 2.315 4.092 2.342 4.375.104 5.615-2.838 5.795-3.509l.398-.036 1.329 3.433c-.266.261-1.453 1.316-3.877 2.129-1.309.438-2.549.656-3.791.656-.928 0-1.857-.125-2.747-.375-3.558-.991-6.005-3.533-6.234-6.484-.104-1.309.338-2.918 1.07-3.914C-14.096 1.672-12.131.6-9.156-.674c.729-.315 1.369-.555 1.931-.766 1.649-.621 2.736-1.028 3.608-2.321.714-1.057.911-2.853-.132-4.101-.95-1.136-2.434-1.76-4.188-1.76a7.54 7.54 0 0 0-3.783 1.031c-2.593 1.544-3.344 4.53-3.402 5.231l-.738.041-1.435-4.867c.414-.494 3.668-4.131 9.908-4.167 2.859.133 6.796 1.438 8.492 4.674C2.247-5.511 2.142-2.041 0 0" style="fill:#292254;fill-opacity:1;fill-rule:nonzero;stroke:none;stroke-width:.20677" transform="matrix(1.70614 0 0 -1.70614 228.108 182.027)"/></g><g style="stroke-width:.20677"><path d="M0 0a40 40 0 0 0-.982-.011h-11.781l-.004 1.67v20.823h-7.631V20.39a173 173 0 0 0 1.685-.375c1.028-.245 1.64-1.106 1.64-2.292V1.702c0-1.193-.612-2.047-1.64-2.29-.583-.14-1.386-.311-1.685-.377V-3.06H.984z" style="fill:#292254;fill-opacity:1;fill-rule:nonzero;stroke:none;stroke-width:.20677" transform="matrix(1.70614 0 0 -1.70614 34.802 197.256)"/></g><g style="stroke-width:.20677"><path d="M0 0c5.278 11.261 9.036 19.646 12.383 26.924 10.668 23.155 24.359 25.195 28.042 22.287 4.333-3.412-.254-17.822-16.864-26.186-7.362-3.709-18.415-5.053-31.436-6.285-9.014-.846-16.675-1.383-24.042-4.76-16.801-7.699-21.33-22.196-17.383-23.421 4.462-1.389 13.085 4.93 18.172 15.32 4.17 8.51 17.394 36.69 21.643 45.805.86 1.841 1.388 2.984 1.79 3.59.617.938 1.427.275 2.432-.448 3.057-2.212 3.489-5.084 2.406-7.556-.665-1.522-14.734-31.739-19.632-42.166-7.803-16.621-24.33-20.611-28.604-16.447-4.482 4.364 1.408 19.726 17.983 28.163 8.809 4.488 17.24 4.955 25.473 5.77 7.75.762 12.439 1.221 18.219 2.404 5.288 1.077 10.212 2.731 13.973 4.624 15.022 7.568 17.475 17.785 15.014 19.493-3.7 2.563-11.153-5.498-16.243-15.888C18.236 20.836 15.239 12.516 9.539.232c-7.984-17.2-25.416-21.338-28.379-18.087-3.682 4.036 6.744 15.298 29.372 14.009C35.288-5.252 49.568-5.68 54.354 1.423c.251.373.534.415.46-.036-.51-3.063-2.835-13.32-21.043-14.082-27.537-1.151-36.092 8.787-47.077 2.106-5.067-3.081-5.498-5.571-3.273-5.626 1.108-.023 3.066.733 5.042 1.954C-7.622-11.836-3.072-6.549 0 0" style="fill:#292254;fill-opacity:1;fill-rule:nonzero;stroke:none;stroke-width:.20677" transform="matrix(1.70614 0 0 -1.70614 114.857 91.682)"/></g><g style="stroke-width:.20677"><path d="M0 0h1.293v-3.344H4.96V0h1.293v-8.202H4.96v3.733H1.293v-3.733H0Z" style="fill:#726966;fill-opacity:1;fill-rule:nonzero;stroke:none;stroke-width:.20677" transform="matrix(1.70614 0 0 -1.70614 66.133 221.49)"/></g><g style="stroke-width:.20677"><path d="M0 0h1.326l3.82-6.143V0h1.227v-8.202H5.046l-3.82 6.053v-6.053H0Z" style="fill:#726966;fill-opacity:1;fill-rule:nonzero;stroke:none;stroke-width:.20677" transform="matrix(1.70614 0 0 -1.70614 95.761 221.49)"/></g><g style="stroke-width:.20677"><path d="M0 0h1.388l3.821-6.143V0h1.294v-8.202H5.108l-3.82 6.053v-6.053H0Z" style="fill:#726966;fill-opacity:1;fill-rule:nonzero;stroke:none;stroke-width:.20677" transform="matrix(1.70614 0 0 -1.70614 138.825 221.49)"/></g><g style="stroke-width:.20677"><path d="m0 0-2.095-3.824-.005-.01-.006.01L-4.201 0h-1.43l2.884-5.123v-3.079h1.292v3.079L1.431 0Z" style="fill:#726966;fill-opacity:1;fill-rule:nonzero;stroke:none;stroke-width:.20677" transform="matrix(1.70614 0 0 -1.70614 119.456 221.49)"/></g><g style="stroke-width:.20677"><path d="M0 0c0 2.674 1.7 4.279 3.941 4.279 1.195 0 1.999-.513 2.516-1.037l-.724-.824c-.413.411-.931.735-1.747.735-1.573 0-2.594-1.181-2.594-3.109 0-1.951.906-3.143 2.652-3.143.517 0 1.035.145 1.313.402V-.77H3.7V.289h2.958v-3.556c-.638-.546-1.591-.957-2.751-.957C1.643-4.224 0-2.688 0 0" style="fill:#726966;fill-opacity:1;fill-rule:nonzero;stroke:none;stroke-width:.20677" transform="matrix(1.70614 0 0 -1.70614 153.731 228.525)"/></g><g style="stroke-width:.20677"><path d="m0 0 1.112 3.605L2.223 0Zm3.297-3.481h1.472L1.95 4.721H.273l-2.818-8.202h1.472l.739 2.397h2.892z" style="fill:#726966;fill-opacity:1;fill-rule:nonzero;stroke:none;stroke-width:.20677" transform="matrix(1.70614 0 0 -1.70614 127.625 229.544)"/></g><g style="stroke-width:.20677"><path d="m0 0 1.112 3.605L2.223 0Zm3.297-3.481h1.472L1.95 4.721H.273l-2.819-8.202h1.473l.739 2.397h2.892z" style="fill:#726966;fill-opacity:1;fill-rule:nonzero;stroke:none;stroke-width:.20677" transform="matrix(1.70614 0 0 -1.70614 84.325 229.544)"/></g></g></svg>